<?xml version="1.0" encoding="UTF-8"?>
<svg version="1.1" xmlns="http://www.w3.org/2000/svg" width="180" height="180">
<path d="M0 0 C59.4 0 118.8 0 180 0 C180 59.4 180 118.8 180 180 C120.6 180 61.2 180 0 180 C0 120.6 0 61.2 0 0 Z " fill="#000000" transform="translate(0,0)"/>
<path d="M0 0 C2.20703125 0.03515625 2.20703125 0.03515625 5.76953125 0.66015625 C4.07983036 4.32413924 1.89652914 7.56848197 -0.35546875 10.91015625 C-1.07992187 11.9878125 -1.804375 13.06546875 -2.55078125 14.17578125 C-3.10507813 14.995625 -3.659375 15.81546875 -4.23046875 16.66015625 C-2.78508652 19.68923479 -1.10112283 22.46020305 0.70703125 25.28515625 C8.86568425 38.79668158 9.88238321 56.74759096 6.58203125 72.01171875 C3.13282049 83.25481922 -2.96499199 93.10246143 -13.49414062 98.72143555 C-25.51328818 104.78303344 -38.92917294 105.62834881 -51.84375 101.59375 C-55.23250843 100.26819638 -58.17321049 98.63038935 -61.23046875 96.66015625 C-61.49601562 97.211875 -61.7615625 97.76359375 -62.03515625 98.33203125 C-64.32347873 102.78902535 -66.72903624 107.0435896 -70.23046875 110.66015625 C-73.30836749 111.55183372 -75.00260301 111.22644848 -78.23046875 110.66015625 C-75.04290329 104.56711076 -71.50337314 99.04900818 -67.23046875 93.66015625 C-68.23346316 91.5395395 -69.27916239 89.58836791 -70.59765625 87.64453125 C-80.17727461 73.44882736 -81.3047475 55.1461339 -78.11328125 38.671875 C-74.60079197 26.6890023 -68.6285755 17.5857802 -57.73046875 11.34765625 C-50.66359915 7.55441007 -44.02574631 6.24910794 -36.10546875 6.22265625 C-35.27523193 6.21806396 -34.44499512 6.21347168 -33.58959961 6.20874023 C-26.87736965 6.3287057 -21.87346694 7.74064343 -15.796875 10.6640625 C-13.3560025 11.79618113 -13.3560025 11.79618113 -11.0859375 11.62890625 C-8.37840328 10.21528839 -7.49743576 8.21552893 -5.98046875 5.59765625 C-2.86599625 0.84825458 -2.86599625 0.84825458 0 0 Z " fill="#F9F9F9" transform="translate(125.23046875,35.33984375)"/>
<path d="M0 0 C0.66 0 1.32 0 2 0 C6.56768039 8.52633672 8.34267076 15.87768619 8.25 25.5 C8.26160156 26.70462891 8.26160156 26.70462891 8.2734375 27.93359375 C8.23991279 38.27596649 5.39616403 49.30281029 -1.890625 56.99609375 C-3.85792875 58.54902447 -5.79975491 59.80330181 -8 61 C-8.59296875 61.33644531 -9.1859375 61.67289063 -9.796875 62.01953125 C-16.76480556 65.28016542 -25.54828441 65.18267648 -32.8671875 63.23828125 C-38.41253846 60.99710906 -38.41253846 60.99710906 -40.01953125 58.26953125 C-39.98764902 54.56481578 -37.58498394 52.22302364 -35.375 49.4375 C-34.34600135 48.09079593 -33.32009409 46.74172558 -32.296875 45.390625 C-31.75482422 44.67712891 -31.21277344 43.96363281 -30.65429688 43.22851562 C-27.85885804 39.46275918 -25.24846119 35.57407966 -22.625 31.6875 C-16.66876841 22.90546298 -10.52873848 14.26512638 -4.24902344 5.71142578 C-3.2333329 4.31971534 -2.2418455 2.91036539 -1.2578125 1.49609375 C-0.63519531 0.75552734 -0.63519531 0.75552734 0 0 Z " fill="#030303" transform="translate(112,64)"/>
<path d="M0 0 C2.046875 1.16796875 2.046875 1.16796875 3.046875 4.16796875 C1.61355484 6.60615422 0.13890152 8.82301784 -1.515625 11.10546875 C-2.0108667 11.80639648 -2.5061084 12.50732422 -3.01635742 13.22949219 C-4.09217203 14.7513844 -5.17219009 16.27031181 -6.25585938 17.78662109 C-8.53555362 20.98514493 -10.78124954 24.2068827 -13.02783203 27.42871094 C-14.78144708 29.94063269 -16.54271599 32.44705974 -18.3046875 34.953125 C-20.8436567 38.57029603 -23.35496041 42.20502922 -25.8515625 45.8515625 C-26.48602295 46.77291992 -27.1204834 47.69427734 -27.77416992 48.64355469 C-28.99671239 50.41987931 -30.21326261 52.20034648 -31.4230957 53.98535156 C-31.97312256 54.78166992 -32.52314941 55.57798828 -33.08984375 56.3984375 C-33.81240356 57.45647583 -33.81240356 57.45647583 -34.54956055 58.53588867 C-35.953125 60.16796875 -35.953125 60.16796875 -38.953125 61.16796875 C-39.76917499 59.25281085 -40.58083132 57.33578041 -41.390625 55.41796875 C-41.84308594 54.350625 -42.29554687 53.28328125 -42.76171875 52.18359375 C-47.05940972 41.30550381 -46.23415436 25.81658071 -42.10546875 14.93359375 C-38.25846706 6.64774396 -33.54958603 2.16923279 -25.26953125 -1.69140625 C-16.53268366 -4.69630554 -8.45084268 -3.1873843 0 0 Z " fill="#030303" transform="translate(103.953125,55.83203125)"/>
</svg>
